Mono16accents.sfdir
StartChar: percent
Encoding: 37 37 60
Width: 1152
VWidth: 0
Flags: W
HStem: -16 120<661.837 874.164> 408 120<661.836 874.163> 880 120<277.837 490.164> 1304 120<277.836 490.163>
VStem: 112 128<1038.04 1265.96> 496 128<142.036 369.963> 528 128<1038.04 1265.96> 912 128<142.037 369.964>
LayerCount: 5
Back
SplineSet
0 256 m 5
 1152 1152 l 1029
EndSplineSet
Fore
SplineSet
384 1304 m 4xfb
 299.541015625 1304 240 1249.68847656 240 1152 c 4
 240 1054.32226562 299.509765625 1000 384 1000 c 4
 468.458984375 1000 528 1054.31152344 528 1152 c 4
 528 1249.67773438 468.490234375 1304 384 1304 c 4xfb
384 1424 m 4
 544.560546875 1424 656 1304.49804688 656 1152 c 4
 656 999.512695312 544.591796875 880 384 880 c 4
 223.439453125 880 112 999.501953125 112 1152 c 4
 112 1304.48730469 223.408203125 1424 384 1424 c 4
768 408 m 0
 683.541015625 408 624 353.688476562 624 256 c 0xfd
 624 158.322265625 683.509765625 104 768 104 c 0
 852.458984375 104 912 158.311523438 912 256 c 0
 912 353.677734375 852.490234375 408 768 408 c 0
768 528 m 0
 928.560546875 528 1040 408.498046875 1040 256 c 0
 1040 103.512695312 928.591796875 -16 768 -16 c 0
 607.439453125 -16 496 103.501953125 496 256 c 0
 496 408.487304688 607.408203125 528 768 528 c 0
128 434 m 1
 1024 1130 l 1
 1024 974 l 1
 128 278 l 1
 128 434 l 1
EndSplineSet
Layer: 2
SplineSet
128 1408 m 5
 1024 1408 l 5
 1024 0 l 5
 128 0 l 5
 128 1408 l 5
EndSplineSet
Layer: 3
SplineSet
768 468 m 4
 890.525 468 976 381.08828125 976 256 c 4
 976 130.91171875 890.525 44 768 44 c 4
 645.475 44 560 130.91171875 560 256 c 4
 560 381.08828125 645.475 468 768 468 c 4
128 434 m 1
 1024 1130 l 1
 1024 974 l 1
 128 278 l 1
 128 434 l 1
EndSplineSet
Layer: 4
EndChar
StartChar: zero
Encoding: 48 48 70
Width: 1152
VWidth: 0
Flags: W
HStem: -16 120<461.851 690.149> 640 128<512 640> 1304 120<461.851 690.149>
VStem: 256 128<190.118 1217.88> 512 128<640 768> 768 128<190.118 1217.88>
CounterMasks: 1 fc
LayerCount: 5
Back
Fore
SplineSet
512 768 m 5
 640 768 l 5
 640 640 l 5
 512 640 l 5
 512 768 l 5
576 1304 m 0
 505 1304 414 1257 390 1121 c 0
 384 1087 384 1028 384 976 c 0
 384 432 l 0
 384 380 384 321 390 287 c 0
 414 151 505 104 576 104 c 0
 647 104 738 151 762 287 c 0
 768 321 768 380 768 432 c 0
 768 976 l 0
 768 1028 768 1087 762 1121 c 0
 738 1257 647 1304 576 1304 c 0
576 1424 m 0
 700 1424 854 1343 888 1139 c 0
 896 1091 896 1057 896 976 c 0
 896 432 l 0
 896 351 896 317 888 269 c 0
 854 65 700 -16 576 -16 c 0
 452 -16 298 65 264 269 c 0
 256 317 256 351 256 432 c 0
 256 976 l 0
 256 1057 256 1091 264 1139 c 0
 298 1343 452 1424 576 1424 c 0
EndSplineSet
Layer: 2
SplineSet
576 1492 m 0
 617.450591796 1492 658.827514353 1480.85798434 694.750753164 1460.17774079 c 0
 730.673991975 1439.49749723 760.947598833 1409.38800221 782.803326276 1374.16757152 c 0
 804.65905372 1338.94714083 818.044903209 1298.87844519 824.862689374 1257.99239191 c 0
 831.68047554 1217.10633864 832 1175.4505918 832 1134 c 2
 832 402 l 2
 832 360.549408204 831.68047554 318.893661356 824.862689374 278.007608085 c 0
 818.044903209 237.121554814 804.65905372 197.05285917 782.803326276 161.832428477 c 0
 760.947598833 126.611997785 730.673991975 96.5025027698 694.750753164 75.8222592125 c 0
 658.827514353 55.1420156551 617.450591796 43.9999999999 576 44 c 0
 534.549408204 44 493.172485647 55.1420156553 457.249246836 75.8222592127 c 0
 421.326008025 96.5025027701 391.052401167 126.611997785 369.196673724 161.832428478 c 0
 347.34094628 197.05285917 333.955096791 237.121554815 327.137310626 278.007608085 c 0
 320.31952446 318.893661356 320 360.549408204 320 402 c 2
 320 1134 l 2
 320 1175.4505918 320.31952446 1217.10633864 327.137310626 1257.99239191 c 0
 333.955096791 1298.87844519 347.34094628 1338.94714083 369.196673724 1374.16757152 c 0
 391.052401167 1409.38800222 421.326008025 1439.49749723 457.249246836 1460.17774079 c 0
 493.172485647 1480.85798434 534.549408204 1492 576 1492 c 0
  Spiro
    576 1492 o
    832 1134 [
    832 402 ]
    576 44 o
    320 402 [
    320 1134 ]
    0 0 z
  EndSpiro
EndSplineSet
Layer: 3
Layer: 4
EndChar
StartChar: nine
Encoding: 57 57 79
Width: 1152
VWidth: 0
Flags: W
HStem: -16 120<260.158 677.297> 496 120<428.061 685.463> 1304 120<428.518 691.412>
VStem: 224 128<700.253 1219.51> 768 128<202.021 621 700.891 1219.11>
LayerCount: 5
Back
Fore
SplineSet
560 1304 m 4
 373 1304 352 1147 352 960 c 4
 352 773 373 616 560 616 c 4
 747 616 768 773 768 960 c 4
 768 1147 747 1304 560 1304 c 4
560 1424 m 4
 718 1424 820.301185034 1341.11282411 864 1224 c 4
 889 1157 896 1087 896 993 c 6
 896 416 l 6
 896 356 895.984171681 245.009887175 835 143 c 4
 780 51 684 -16 536 -16 c 4
 443 -16 345 6 256 23 c 5
 256 146 l 5
 344 129 448 104 536 104 c 4
 632 104 687.31510174 142.803914171 724 202 c 4
 768 273 768 369 768 416 c 6
 768 621 l 5
 758 621 l 5
 703 536.384615385 638 496 540 496 c 4
 392 496 294.598790292 578.853326698 252 696 c 4
 224 773 224 858 224 960 c 4
 224 1042 224.022588702 1136.99169484 256 1224 c 4
 299 1341 402 1424 560 1424 c 4
EndSplineSet
Layer: 2
Layer: 3
Layer: 4
EndChar
StartChar: E
Encoding: 69 69 33
Width: 1152
VWidth: 0
Flags: W
HStem: 0 120<384 1024> 644 120<384 896> 1160 120<384 1024>
VStem: 256 128<120 644 764 1160>
AnchorPoint: "bottom" 960 0 basechar 0
AnchorPoint: "top" 576 1280 basechar 0
LayerCount: 5
Back
Fore
SplineSet
256 1280 m 1
 1024 1280 l 1
 1024 1160 l 1
 384 1160 l 1
 384 764 l 1
 896 764 l 1
 896 644 l 1
 384 644 l 1
 384 120 l 1
 1024 120 l 1
 1024 0 l 1
 256 0 l 1
 256 1280 l 1
EndSplineSet
Layer: 2
SplineSet
256 1408 m 5
 1024 1408 l 5
 1024 1288 l 5
 384 1288 l 5
 384 764 l 5
 896 764 l 5
 896 644 l 5
 384 644 l 5
 384 120 l 5
 1024 120 l 5
 1024 0 l 5
 256 0 l 5
 256 1408 l 5
EndSplineSet
Layer: 3
Layer: 4
EndChar
StartChar: I
Encoding: 73 73 37
Width: 1152
VWidth: 0
Flags: HW
HStem: 0 120<256 512 640 896> 1160 120<256 512 640 896>
VStem: 512 128<120 1160>
AnchorPoint: "bottom" 832 0 basechar 0
AnchorPoint: "top" 576 1280 basechar 0
LayerCount: 5
Back
Fore
SplineSet
896 1280 m 1
 896 1160 l 1
 640 1160 l 1
 640 120 l 1
 896 120 l 1
 896 0 l 1
 256 0 l 1
 256 120 l 1
 512 120 l 1
 512 1160 l 1
 256 1160 l 1
 256 1280 l 1
 896 1280 l 1
EndSplineSet
Layer: 2
Layer: 3
Layer: 4
EndChar
StartChar: L
Encoding: 76 76 40
Width: 1152
VWidth: 0
Flags: HW
HStem: 0 120<384 1024> 1260 20G<256 384>
VStem: 256 128<120 1280>
AnchorPoint: "bottom" 576 0 basechar 0
AnchorPoint: "top" 320 1280 basechar 0
LayerCount: 5
Back
Fore
SplineSet
256 0 m 1
 256 1280 l 1
 384 1280 l 1
 384 120 l 1
 1024 120 l 1
 1024 0 l 1
 256 0 l 1
EndSplineSet
Layer: 2
Layer: 3
Layer: 4
EndChar
StartChar: w
Encoding: 119 119 22
Width: 1152
VWidth: 0
Flags: HW
HStem: 0 21G<257 386.593 765.407 895> 1003 21G<106 237 509.474 642.526 915 1046>
VStem: 106 131<559.059 1024> 915 131<559.059 1024>
AnchorPoint: "top" 576 1024 basechar 0
LayerCount: 5
Back
SplineSet
1138 1124 m 5
 896 14 l 5
 640 1009 l 5
 384 14 l 5
 142 1124 l 1029
EndSplineSet
Fore
SplineSet
514 1023 m 1
 638 1023 l 1
 822 210 l 1
 832 210 l 1
 907 461 915 741 915 1024 c 1
 1046 1024 l 1
 1046 681 995 340 895 2 c 1
 770 0 l 1
 581 823 l 1
 571 823 l 1
 382 0 l 1
 257 2 l 1
 157 340 106 681 106 1024 c 1
 237 1024 l 1
 237 741 245 461 320 210 c 1
 330 210 l 1
 514 1023 l 1
EndSplineSet
Layer: 2
SplineSet
1182 1024 m 5
 959 2 l 5
 834 -0 l 5
 640 753 l 5
 446 -0 l 5
 321 2 l 5
 98 1024 l 5
 229 1024 l 5
 389 290 l 5
 578 1023 l 5
 702 1023 l 5
 891 290 l 5
 1051 1024 l 5
 1182 1024 l 5
EndSplineSet
Layer: 3
Layer: 4
EndChar
StartChar: aring
Encoding: 229 229 157
Width: 1152
VWidth: 0
Flags: H
HStem: -16 120<416.403 660.71> 0 21G<768 896> 512 110<418.102 768> 920 188<493.216 660.9> 1324 100<491.279 660.718>
VStem: 224 128<169.682 443.733> 368 108<1121.87 1310.5> 676 108<1121.67 1310.5> 768 128<0 123 195.803 512 622 892.213>
LayerCount: 5
Back
Fore
SplineSet
768 512 m 5xbc
 572 512 l 6
 517 512 459 512 408 458 c 4
 372 420 352 362 352 303 c 4
 352 194 425 104 532 104 c 4
 638 104 715 162 746 235 c 4
 768 287 768 349 768 421 c 6
 768 512 l 5xbc
608 1040 m 4
 704 1040 805 1021 866 913 c 4
 896 860 896 785 896 749 c 6
 896 0 l 5
 768 0 l 5x7c
 768 123 l 5
 758 123 l 5
 694 35 617 -16 508 -16 c 4
 455 -16 347 10 283 106 c 4
 249 157 224 224 224 301 c 4
 224 383 249 470 312 533 c 4
 402 622 512 622 574 622 c 6
 768 622 l 5
 768 744 l 6
 768 788 768 831 750 862 c 4
 729 898 696 920 608 920 c 4
 549 920 418 906 320 891 c 5
 320 1013 l 5
 417 1027 545 1040 608 1040 c 4
576 1256 m 4
 518.13671875 1256 476 1222.05664062 476 1148 c 4
 476 1073.96484375 518.0625 1040 576 1040 c 4
 633.865234375 1040 676 1073.94140625 676 1148 c 4
 676 1222.03515625 633.9375 1256 576 1256 c 4
576 1356 m 4
 699.30078125 1356 784 1262.32519531 784 1148 c 4
 784 1033.69140625 699.358398438 940 576 940 c 4
 452.69921875 940 368 1033.67382812 368 1148 c 4
 368 1262.30761719 452.640625 1356 576 1356 c 4
EndSplineSet
Layer: 2
Layer: 3
Layer: 4
EndChar
StartChar: abreve
Encoding: 259 259 179
Width: 1152
VWidth: 0
Flags: H
LayerCount: 5
Back
Fore
SplineSet
768 512 m 1xbc
 572 512 l 2
 517 512 459 512 408 458 c 0
 372 420 352 362 352 303 c 0
 352 194 425 104 532 104 c 0
 638 104 715 162 746 235 c 0
 768 287 768 349 768 421 c 2
 768 512 l 1xbc
608 1040 m 0
 704 1040 805 1021 866 913 c 0
 896 860 896 785 896 749 c 6
 896 0 l 5
 768 0 l 1x7c
 768 123 l 1
 758 123 l 1
 694 35 617 -16 508 -16 c 0
 455 -16 347 10 283 106 c 0
 249 157 224 224 224 301 c 0
 224 383 249 470 312 533 c 0
 402 622 512 622 574 622 c 2
 768 622 l 1
 768 744 l 2
 768 788 768 831 750 862 c 0
 729 898 696 920 608 920 c 0
 549 920 418 906 320 891 c 1
 320 1013 l 1
 417 1027 545 1040 608 1040 c 0
788 1408 m 1
 916 1408 l 1
 916 1239.94628906 764.259765625 1136 576 1136 c 0
 387.739257812 1136 236 1239.94433594 236 1408 c 1
 364 1408 l 1
 364 1321.65527344 433.061523438 1256 576 1256 c 0
 718.939453125 1256 788 1321.65332031 788 1408 c 1
EndSplineSet
Layer: 2
Layer: 3
Layer: 4
EndChar
StartChar: aogonek
Encoding: 261 261 261
Width: 1152
VWidth: 0
Flags: H
LayerCount: 5
Back
Fore
SplineSet
768 512 m 1xbc
 572 512 l 2
 517 512 459 512 408 458 c 0
 372 420 352 362 352 303 c 0
 352 194 425 104 532 104 c 0
 638 104 715 162 746 235 c 0
 768 287 768 349 768 421 c 2
 768 512 l 1xbc
608 1040 m 0
 704 1040 805 1021 866 913 c 0
 896 860 896 785 896 749 c 6
 896 0 l 5
 768 0 l 1x7c
 768 123 l 1
 758 123 l 1
 694 35 617 -16 508 -16 c 0
 455 -16 347 10 283 106 c 0
 249 157 224 224 224 301 c 0
 224 383 249 470 312 533 c 0
 402 622 512 622 574 622 c 2
 768 622 l 1
 768 744 l 2
 768 788 768 831 750 862 c 0
 729 898 696 920 608 920 c 0
 549 920 418 906 320 891 c 1
 320 1013 l 1
 417 1027 545 1040 608 1040 c 0
767 -280 m 0
 813 -280 857 -270 896 -260 c 1
 896 -383 l 1
 856 -391 813 -400 767 -400 c 0
 653 -400 512 -325 512 -205 c 0
 512 -57 706.760742188 -63 768 0 c 5
 896 0 l 1
 854.838867188 -91 640 -103 640 -198 c 0
 640 -258 710 -280 767 -280 c 0
EndSplineSet
Layer: 2
Layer: 3
Layer: 4
EndChar
StartChar: cdotaccent
Encoding: 267 267 183
Width: 1152
VWidth: 0
Flags: H
LayerCount: 5
Back
Fore
SplineSet
224 512 m 0
 224 633.270507812 226 738 264 831 c 0
 311 946 417.376953125 1040 586 1040 c 0
 668.55859375 1040 768.595703125 1025.40136719 896 999 c 1
 896 876 l 1
 767.84765625 903.083007812 662.2421875 920 586 920 c 0
 485 920 420 872 384 789 c 0
 352 716 352 613.502929688 352 512 c 1
 352 410.497070312 352 308 384 235 c 0
 420 152 485 104 586 104 c 0
 662.2421875 104 767.84765625 120.916992188 896 148 c 1
 896 25 l 1
 768.595703125 -1.4013671875 668.55859375 -16 586 -16 c 0
 417.376953125 -16 311 78 264 193 c 0
 226 286 224 390.729492188 224 512 c 0
576 1424 m 4
 642 1424 688 1378 688 1312 c 4
 688 1246 642 1200 576 1200 c 4
 510 1200 464 1246 464 1312 c 4
 464 1378 510 1424 576 1424 c 4
EndSplineSet
Layer: 2
Layer: 3
Layer: 4
EndChar
StartChar: Dcaron
Encoding: 270 270 185
Width: 1152
VWidth: 0
Flags: HW
LayerCount: 5
Back
Fore
SplineSet
504 120 m 1
 665 120 764 189 829 278 c 4
 896.64453125 370.62109375 912 487.891601562 912 640 c 4
 912 713.899414062 902.975585938 784.075195312 886 854 c 4
 844 1027 725 1160 504 1160 c 4
 395 1160 353 1160 256 1160 c 5
 256 120 l 1
 504 120 l 1
504 1280 m 5
 608 1280 716 1250 807 1189 c 4
 910 1119 977 1009 1011 880 c 4
 1032.83691406 797.1484375 1040 718.158203125 1040 640 c 4
 1040 561.841796875 1032.15820312 482.708007812 1011 400 c 4
 978 271 908 163 807 91 c 0
 718 27 609 0 504 0 c 0
 384 0 275 0 128 0 c 1
 128 1280 l 5
 504 1280 l 5
497 1408 m 5
 655 1408 l 5
 952 1664 l 5
 794 1664 l 5
 576 1500.03710938 l 5
 358 1664 l 5
 200 1664 l 5
 497 1408 l 5
EndSplineSet
Layer: 2
Layer: 3
Layer: 4
EndChar
StartChar: Emacron
Encoding: 274 274 187
Width: 1152
VWidth: 0
Flags: H
LayerCount: 5
Back
Fore
SplineSet
256 1280 m 5
 1024 1280 l 5
 1024 1160 l 5
 384 1160 l 5
 384 764 l 5
 896 764 l 5
 896 644 l 5
 384 644 l 5
 384 120 l 5
 1024 120 l 5
 1024 0 l 5
 256 0 l 5
 256 1280 l 5
256 1532 m 5
 896 1532 l 5
 896 1412 l 5
 256 1412 l 5
 256 1532 l 5
EndSplineSet
Layer: 2
Layer: 3
Layer: 4
EndChar
StartChar: Eogonek
Encoding: 280 280 263
Width: 1152
VWidth: 0
Flags: H
LayerCount: 5
Back
Fore
SplineSet
256 1408 m 1
 1024 1408 l 1
 1024 1288 l 1
 384 1288 l 1
 384 764 l 1
 896 764 l 1
 896 644 l 1
 384 644 l 1
 384 120 l 1
 1024 120 l 1
 1024 0 l 1
 256 0 l 1
 256 1408 l 1
895 -280 m 0
 941 -280 985 -270 1024 -260 c 1
 1024 -383 l 1
 984 -391 941 -400 895 -400 c 0
 781 -400 640 -325 640 -205 c 0
 640 -57 834.760742188 -63 896 0 c 5
 1024 0 l 1
 982.838867188 -91 768 -103 768 -198 c 0
 768 -258 838 -280 895 -280 c 0
EndSplineSet
Layer: 2
Layer: 3
Layer: 4
EndChar
StartChar: ecaron
Encoding: 283 283 194
Width: 1152
VWidth: 0
Flags: H
LayerCount: 5
Back
Fore
SplineSet
352 512 m 1
 352 410.497070312 352 308 384 235 c 0
 420 152 485 104 586 104 c 0
 662.2421875 104 767.84765625 120.916992188 896 148 c 1
 896 25 l 1
 768.595703125 -1.4013671875 668.55859375 -16 586 -16 c 0
 417.376953125 -16 311 78 264 193 c 0
 226 286 224 390.729492188 224 512 c 0
 224 632.510742188 225.643554688 734.44140625 263.647460938 829.205078125 c 0
 309.981445312 944.740234375 415.514648438 1040 576 1040 c 0
 736.485351562 1040 842.021484375 944.7421875 888.352539062 829.205078125 c 0
 926.353515625 734.440429688 928 632.510742188 928 512 c 1
 352 512 l 1
797.458007812 632 m 1
 794.057617188 690.013671875 786.173828125 744.1328125 768 789 c 0
 736 868 672 920 576 920 c 0
 480 920 415.655273438 868.138671875 384 789 c 0
 366.025390625 744.063476562 358.102539062 689.974609375 354.638671875 632 c 1
 797.458007812 632 l 1
497 1152 m 5
 655 1152 l 5
 952 1408 l 5
 794 1408 l 5
 576 1244.03710938 l 5
 358 1408 l 5
 200 1408 l 5
 497 1152 l 5
EndSplineSet
Layer: 2
Layer: 3
Layer: 4
EndChar
StartChar: gbreve
Encoding: 287 287 207
Width: 1152
VWidth: 0
Flags: H
LayerCount: 5
Back
Fore
SplineSet
560 920 m 0xec
 464 920 404 847 378 768 c 0
 353 692 352 604 352 512 c 0
 352 420 353 332 378 256 c 0
 404 177 464 104 560 104 c 0
 656 104 716 177 742 256 c 0
 767 332 768 420 768 512 c 0
 768 604 767 692 742 768 c 0
 716 847 656 920 560 920 c 0xec
540 1040 m 0
 623 1040 699 991 758 899 c 1
 768 899 l 1
 768 1024 l 1
 896 1024 l 1xdc
 896 -96 l 2
 896 -156.223632812 896 -267 835 -369 c 0
 780 -461 684 -528 536 -528 c 0
 443 -528 345 -506 256 -489 c 1
 256 -366 l 1
 344 -383 448 -408 536 -408 c 0
 632 -408 687 -369 724 -310 c 0
 768 -239 768 -143.223632812 768 -96 c 2
 768 125 l 1
 758 125 l 1
 699 33 623 -16 540 -16 c 0
 409 -16 299 71 252 221 c 0
 224 311 224 400 224 512 c 0
 224 624 224 713 252 803 c 0
 299 953 409 1040 540 1040 c 0
788 1408 m 5
 916 1408 l 5
 916 1239.94628906 764.259765625 1136 576 1136 c 4
 387.739257812 1136 236 1239.94433594 236 1408 c 5
 364 1408 l 5
 364 1321.65527344 433.061523438 1256 576 1256 c 4
 718.939453125 1256 788 1321.65332031 788 1408 c 5
EndSplineSet
Layer: 2
Layer: 3
Layer: 4
EndChar
StartChar: uni0122
Encoding: 290 290 274
Width: 1152
VWidth: 0
Flags: H
LayerCount: 5
Back
Fore
SplineSet
643 1296 m 0
 765.651367188 1296 884.952148438 1266.67675781 994 1238.70507812 c 1
 994 1114.71875 l 1
 880.54296875 1143.95898438 755.025390625 1176 643 1176 c 0
 430 1176 312.309570312 1059.92089844 268 888 c 0
 247.770507812 809.510742188 240 726.919921875 240 640 c 0
 240 553.080078125 247.916992188 470.506835938 268 392 c 0
 312 220 430 104 643 104 c 0
 723.524414062 104 811.037109375 120.400390625 896 140.348632812 c 1
 896 520 l 1
 640 520 l 1
 640 640 l 1
 1024 640 l 1
 1024 49 l 1
 907 19 777 -16 643 -16 c 0
 542.661132812 -16 436.330078125 6.509765625 347 64 c 0
 246 129 175.33984375 236.872070312 143 364 c 0
 119.091796875 457.985351562 112 550.706054688 112 640 c 0
 112 729.293945312 118.7109375 822.064453125 143 916 c 0
 175.838867188 1043 246.374023438 1150.42285156 347 1216 c 0
 436 1274 542.661132812 1296 643 1296 c 0
768 -233 m 6
 768 -293 767.727539062 -362.798828125 716 -433 c 4
 674 -490 602.005859375 -528 512 -528 c 4
 512 -408 l 4
 559 -408 590.879882812 -390.909179688 612 -363 c 4
 640 -326 640 -283 640 -233 c 6
 640 -128 l 5
 768 -128 l 5
 768 -233 l 6
EndSplineSet
Layer: 2
Layer: 3
Layer: 4
EndChar
StartChar: uni0123
Encoding: 291 291 277
Width: 1152
VWidth: 0
Flags: H
LayerCount: 5
Back
Fore
SplineSet
560 920 m 0xec
 464 920 404 847 378 768 c 0
 353 692 352 604 352 512 c 0
 352 420 353 332 378 256 c 0
 404 177 464 104 560 104 c 0
 656 104 716 177 742 256 c 0
 767 332 768 420 768 512 c 0
 768 604 767 692 742 768 c 0
 716 847 656 920 560 920 c 0xec
540 1040 m 0
 623 1040 699 991 758 899 c 1
 768 899 l 1
 768 1024 l 1
 896 1024 l 1xdc
 896 -96 l 2
 896 -156.223632812 896 -267 835 -369 c 0
 780 -461 684 -528 536 -528 c 0
 443 -528 345 -506 256 -489 c 1
 256 -366 l 1
 344 -383 448 -408 536 -408 c 0
 632 -408 687 -369 724 -310 c 0
 768 -239 768 -143.223632812 768 -96 c 2
 768 125 l 1
 758 125 l 1
 699 33 623 -16 540 -16 c 0
 409 -16 299 71 252 221 c 0
 224 311 224 400 224 512 c 0
 224 624 224 713 252 803 c 0
 299 953 409 1040 540 1040 c 0
384 1257 m 6
 384 1317 384.272460938 1386.79882812 436 1457 c 4
 478 1514 549.994140625 1552 640 1552 c 4
 640 1432 l 4
 593 1432 561.120117188 1414.90917969 540 1387 c 4
 512 1350 512 1307 512 1257 c 6
 512 1152 l 5
 384 1152 l 5
 384 1257 l 6
EndSplineSet
Layer: 2
Layer: 3
Layer: 4
EndChar
StartChar: hcircumflex
Encoding: 293 293 272
Width: 1152
VWidth: 0
Flags: H
LayerCount: 5
Back
Fore
SplineSet
596 1040 m 0
 696 1040 777.155273438 995.125 827 933 c 0
 896 847 896 751 896 657 c 2
 896 0 l 1
 768 0 l 1
 768 657 l 2
 768 744 767.984375 805.986328125 723 858 c 0
 691 895 640 920 576 920 c 0
 512 920 461.010742188 894.990234375 429 858 c 0
 384 806 384 744 384 657 c 2
 384 0 l 1
 256 0 l 1
 256 1280 l 1
 384 1280 l 1
 384 912 l 1
 394 912 l 1
 443 989 520 1040 596 1040 c 0
497 1664 m 5
 655 1664 l 5
 952 1408 l 5
 794 1408 l 5
 576 1571.96289062 l 5
 358 1408 l 5
 200 1408 l 5
 497 1664 l 5
EndSplineSet
Layer: 2
Layer: 3
Layer: 4
EndChar
StartChar: imacron
Encoding: 299 299 213
Width: 1152
VWidth: 0
Flags: H
LayerCount: 5
Back
Fore
SplineSet
256 0 m 1
 256 120 l 1
 512 120 l 1
 512 904 l 1
 256 904 l 1
 256 1024 l 1
 640 1024 l 1
 640 120 l 1
 896 120 l 1
 896 0 l 1
 256 0 l 1
256 1276 m 5
 896 1276 l 5
 896 1156 l 5
 256 1156 l 5
 256 1276 l 5
EndSplineSet
Layer: 2
Layer: 3
Layer: 4
EndChar
StartChar: ibreve
Encoding: 301 301 215
Width: 1152
VWidth: 0
Flags: H
LayerCount: 5
Back
Fore
SplineSet
256 0 m 1
 256 120 l 1
 512 120 l 1
 512 904 l 1
 256 904 l 1
 256 1024 l 1
 640 1024 l 1
 640 120 l 1
 896 120 l 1
 896 0 l 1
 256 0 l 1
788 1408 m 5
 916 1408 l 5
 916 1239.94628906 764.259765625 1136 576 1136 c 4
 387.739257812 1136 236 1239.94433594 236 1408 c 5
 364 1408 l 5
 364 1321.65527344 433.061523438 1256 576 1256 c 4
 718.939453125 1256 788 1321.65332031 788 1408 c 5
EndSplineSet
Layer: 2
Layer: 3
Layer: 4
EndChar
StartChar: iogonek
Encoding: 303 303 265
Width: 1152
VWidth: 0
Flags: H
LayerCount: 5
Back
Fore
SplineSet
544 1552 m 0xf0
 610 1552 656 1506 656 1440 c 0
 656 1374 610 1328 544 1328 c 0
 478 1328 432 1374 432 1440 c 0
 432 1506 478 1552 544 1552 c 0xf0
256 0 m 1
 256 120 l 1
 512 120 l 1
 512 904 l 1
 256 904 l 1
 256 1024 l 1
 640 1024 l 1
 640 120 l 1xe8
 896 120 l 1
 896 0 l 1
 256 0 l 1
767 -280 m 0
 813 -280 857 -270 896 -260 c 1
 896 -383 l 1
 856 -391 813 -400 767 -400 c 0
 653 -400 512 -325 512 -205 c 0
 512 -57 706.760742188 -63 768 0 c 5
 896 0 l 1
 854.838867188 -91 640 -103 640 -198 c 0
 640 -258 710 -280 767 -280 c 0
EndSplineSet
Layer: 2
Layer: 3
Layer: 4
EndChar
StartChar: Idotaccent
Encoding: 304 304 216
Width: 1152
VWidth: 0
Flags: H
LayerCount: 5
Back
Fore
SplineSet
896 1280 m 1
 896 1160 l 1
 640 1160 l 1
 640 120 l 1
 896 120 l 1
 896 0 l 1
 256 0 l 1
 256 120 l 1
 512 120 l 1
 512 1160 l 1
 256 1160 l 1
 256 1280 l 1
 896 1280 l 1
576 1680 m 4
 642 1680 688 1634 688 1568 c 4
 688 1502 642 1456 576 1456 c 4
 510 1456 464 1502 464 1568 c 4
 464 1634 510 1680 576 1680 c 4
EndSplineSet
Layer: 2
Layer: 3
Layer: 4
EndChar
StartChar: Jcircumflex
Encoding: 308 308 249
Width: 1152
VWidth: 0
Flags: H
LayerCount: 5
Back
Fore
SplineSet
896 512 m 2
 896 391 894.0078125 285.997070312 856 193 c 0
 809 78 702.623046875 -16 534 -16 c 0
 451.44140625 -16 351.404296875 -1.4013671875 224 25 c 1
 224 148 l 1
 352.15234375 120.916992188 457.7578125 104 534 104 c 0
 635 104 699.677734375 152.140625 736 235 c 0
 768 308 768 410 768 512 c 2
 768 1160 l 1
 256 1160 l 1
 256 1280 l 1
 469.333007812 1280 682.666992188 1280 896 1280 c 1
 896 512 l 2
497 1664 m 5
 655 1664 l 5
 952 1408 l 5
 794 1408 l 5
 576 1571.96289062 l 5
 358 1408 l 5
 200 1408 l 5
 497 1664 l 5
EndSplineSet
Layer: 2
Layer: 3
Layer: 4
EndChar
StartChar: Lacute
Encoding: 313 313 280
Width: 1152
VWidth: 0
Flags: H
LayerCount: 5
Back
Fore
SplineSet
256 0 m 1
 256 1280 l 1
 384 1280 l 1
 384 120 l 1
 1024 120 l 1
 1024 0 l 1
 256 0 l 1
232 1408 m 5
 370 1408 l 5
 536 1664 l 5
 398 1664 l 5
 232 1408 l 5
EndSplineSet
Layer: 2
Layer: 3
Layer: 4
EndChar
StartChar: lacute
Encoding: 314 314 284
Width: 1152
VWidth: 0
Flags: H
LayerCount: 5
Back
Fore
SplineSet
896 -2 m 1
 853 -9 808 -16 758 -16 c 0
 686 -16 627 9 585 52 c 0
 512 128 512 218 512 279 c 2
 512 1280 l 1
 640 1280 l 1
 640 279 l 2
 640 232 640 186 668 148 c 0
 688 121 719 104 768 104 c 0
 805 104 855 113 896 121 c 1
 896 -2 l 1
488 1408 m 5
 626 1408 l 5
 792 1664 l 5
 654 1664 l 5
 488 1408 l 5
EndSplineSet
Layer: 2
Layer: 3
Layer: 4
EndChar
StartChar: uni013C
Encoding: 316 316 286
Width: 1152
VWidth: 0
Flags: H
LayerCount: 5
Back
Fore
SplineSet
896 -2 m 1
 853 -9 808 -16 758 -16 c 0
 686 -16 627 9 585 52 c 0
 512 128 512 218 512 279 c 2
 512 1280 l 1
 640 1280 l 1
 640 279 l 2
 640 232 640 186 668 148 c 0
 688 121 719 104 768 104 c 0
 805 104 855 113 896 121 c 1
 896 -2 l 1
768 -233 m 6
 768 -293 767.727539062 -362.798828125 716 -433 c 4
 674 -490 602.005859375 -528 512 -528 c 4
 512 -408 l 4
 559 -408 590.879882812 -390.909179688 612 -363 c 4
 640 -326 640 -283 640 -233 c 6
 640 -128 l 5
 768 -128 l 5
 768 -233 l 6
EndSplineSet
Layer: 2
Layer: 3
Layer: 4
EndChar
StartChar: Lcaron
Encoding: 317 317 281
Width: 1152
VWidth: 0
Flags: W
HStem: 0 120<384 1024> 1024 21G<768 896> 1260 20G<256 384>
VStem: 256 128<120 1280> 768 128<1024 1664>
LayerCount: 5
Back
Fore
SplineSet
256 0 m 1
 256 1280 l 1
 384 1280 l 1
 384 120 l 1
 1024 120 l 1
 1024 0 l 1
 256 0 l 1
768 1664 m 5
 896 1664 l 5
 896 1024 l 5
 768 1024 l 5
 768 1664 l 5
EndSplineSet
Layer: 2
Layer: 3
Layer: 4
EndChar
StartChar: uni0146
Encoding: 326 326 289
Width: 1152
VWidth: 0
Flags: H
LayerCount: 5
Back
Fore
SplineSet
596 1040 m 0xd8
 696 1040 777 995 827 933 c 0
 896 847 896 751 896 657 c 2
 896 0 l 1
 768 0 l 1
 768 657 l 2
 768 744 768 806 723 858 c 0
 691 895 640 920 576 920 c 0xd8
 512 920 461 895 429 858 c 0
 384 806 384 744 384 657 c 2
 384 0 l 1
 256 0 l 1
 256 1024 l 1
 384 1024 l 1xb8
 384 912 l 1
 394 912 l 1
 443 989 520 1040 596 1040 c 0xd8
640 -233 m 6
 640 -293 639.727539062 -362.798828125 588 -433 c 4
 546 -490 474.005859375 -528 384 -528 c 4
 384 -408 l 4
 431 -408 462.879882812 -390.909179688 484 -363 c 4
 512 -326 512 -283 512 -233 c 6
 512 -128 l 5
 640 -128 l 5
 640 -233 l 6
EndSplineSet
Layer: 2
Layer: 3
Layer: 4
EndChar
StartChar: eng
Encoding: 331 331 258
Width: 1152
VWidth: 0
Flags: W
HStem: -528 120<514.23 739.488> 0 21G<256 384> 920 120<471.273 704.311> 1004 20G<256 384>
VStem: 256 128<0 857.984 912 1024> 768 128<-361.261 854.076>
LayerCount: 5
Back
SplineSet
384 -364.9453125 m 5
 439.177380797 -387.188550019 508.022258918 -408 576 -408 c 4
 643 -408 693.341363374 -384.284862896 725 -346 c 4
 768 -294 768 -229.691828565 768 -142 c 6
 768 0 l 5
 896 0 l 5
 896 -152 l 6
 896 -242.223662353 895.811358478 -337.843931074 828 -420 c 4
 776 -483 692 -528 586 -528 c 4
 511.447909072 -528 444.374883856 -513.04174858 384 -493.27734375 c 5
 384 -364.9453125 l 5
EndSplineSet
Fore
SplineSet
596 1040 m 4xec
 696 1040 777 995 827 933 c 4
 896 847 896 751 896 657 c 4
 896 360.333333333 896 63.6666666667 896 -233 c 4
 896 -293 895.72730588 -362.798656306 844 -433 c 4
 802 -490 730.005859375 -528 640 -528 c 4
 605.496750412 -528 559.324784805 -520.839840264 512 -510.889648438 c 5
 512 -388.493164062 l 5
 559.853230632 -399.695091392 606.356325241 -408 640 -408 c 4
 687 -408 718.879664639 -390.909014584 740 -363 c 4
 768 -326 768 -283 768 -233 c 4
 768 63.6666666667 768 360.333333333 768 657 c 4
 768 744 768 806 723 858 c 4
 691 895 640 920 576 920 c 4xec
 512 920 461 895 429 858 c 4
 384 806 384 744 384 657 c 6
 384 0 l 5
 256 0 l 5
 256 1024 l 5
 384 1024 l 5xdc
 384 912 l 5
 394 912 l 5
 443 989 520 1040 596 1040 c 4xec
EndSplineSet
Layer: 2
Layer: 3
Layer: 4
EndChar
StartChar: Omacron
Encoding: 332 332 200
Width: 1152
VWidth: 0
Flags: H
LayerCount: 5
Back
Fore
SplineSet
240 640 m 0
 240 537.3515625 242 438 266 348 c 0
 304 206 406 104 576 104 c 0
 746 104 848 206 886 348 c 0
 910 438 912 537.3515625 912 640 c 0
 912 742.6484375 910 842 886 932 c 0
 848 1074 746 1176 576 1176 c 0
 406 1176 304 1074 266 932 c 0
 242 842 240 742.6484375 240 640 c 0
112 640 m 0
 112 743.677734375 113 853 142 962 c 0
 193 1153 344 1296 576 1296 c 0
 808 1296 959 1153 1010 962 c 0
 1039 853 1040 743.677734375 1040 640 c 0
 1040 536.322265625 1039 427 1010 318 c 0
 959 127 808 -16 576 -16 c 0
 344 -16 193 127 142 318 c 0
 113 427 112 536.322265625 112 640 c 0
256 1532 m 5
 896 1532 l 5
 896 1412 l 5
 256 1412 l 5
 256 1532 l 5
EndSplineSet
Layer: 2
Layer: 3
Layer: 4
EndChar
StartChar: racute
Encoding: 341 341 268
Width: 1152
VWidth: 0
Flags: H
LayerCount: 5
Back
Fore
SplineSet
256 1024 m 1xb0
 384 1024 l 1xb0
 384 876 l 1
 394 876 l 1
 460 982 537 1040 665 1040 c 0
 737.095703125 1040 818.080078125 1033.97949219 896 1025.94726562 c 1
 896 902.916015625 l 1
 814.1015625 912.82421875 729.64453125 920 665 920 c 0xd0
 589 920 535.232421875 902.721679688 491 866 c 0
 385 778 384 612 384 535 c 2
 384 0 l 1
 256 0 l 1
 256 1024 l 1xb0
488 1152 m 5
 626 1152 l 5
 792 1408 l 5
 654 1408 l 5
 488 1152 l 5
EndSplineSet
Layer: 2
Layer: 3
Layer: 4
EndChar
StartChar: Scedilla
Encoding: 350 350 217
Width: 1152
VWidth: 0
Flags: H
LayerCount: 5
Back
Fore
SplineSet
570 1304 m 0
 379 1304 280 1178 280 1036 c 0
 280 928 337.739257812 846.514648438 412 807 c 0
 521 749 661 770 792 721 c 0
 923 672 1040 547 1040 375 c 0
 1040 192 897 -16 582 -16 c 0
 465.171875 -16 319.254882812 10.90625 192 39.2939453125 c 1
 192 162.702148438 l 1
 319.401367188 133.064453125 467.776367188 104 582 104 c 0
 814 104 912 240 912 375 c 0
 912 493 834.958984375 574.890625 744 609 c 0
 616 657 487 629 348 703 c 0
 239.790039062 760.608398438 152 880 152 1036 c 0
 152 1222 288 1424 570 1424 c 0
 671.189453125 1424 810.776367188 1392.71289062 930 1360.71972656 c 1
 930 1236.33203125 l 1
 810.129882812 1269.83398438 668.7109375 1304 570 1304 c 0
768 -105 m 2
 768 -165 767.727539062 -234.798828125 716 -305 c 0
 674 -362 602.005859375 -400 512 -400 c 0
 477.497070312 -400 431.325195312 -392.83984375 384 -382.889648438 c 1
 384 -260.493164062 l 1
 431.853515625 -271.6953125 478.356445312 -280 512 -280 c 0
 559 -280 590.879882812 -262.909179688 612 -235 c 0
 640 -198 640 -155 640 -105 c 2
 640 0 l 1
 768 0 l 1
 768 -105 l 2
EndSplineSet
Layer: 2
Layer: 3
Layer: 4
EndChar
StartChar: uni0163
Encoding: 355 355 251
Width: 1152
VWidth: 0
Flags: H
LayerCount: 5
Back
Fore
SplineSet
896 18.72265625 m 1
 835.625 -1.0419921875 768.551757812 -16 694 -16 c 0
 588 -16 504 29 452 92 c 0
 384.188476562 174.15625 384 270.530273438 384 360 c 2
 384 898 l 1
 128 898 l 1
 128 1024 l 1
 384 1024 l 1
 384 1280 l 1
 512 1280 l 1
 512 1024 l 1
 896 1024 l 1
 896 898 l 1
 512 898 l 1
 512 370 l 2
 512 284.29296875 512 218 555 166 c 0
 586.658203125 127.71484375 637 104 704 104 c 0
 771.977539062 104 840.822265625 124.811523438 896 147.0546875 c 1
 896 18.72265625 l 1
768 -105 m 2
 768 -165 767.727539062 -234.798828125 716 -305 c 0
 674 -362 602.005859375 -400 512 -400 c 0
 477.497070312 -400 431.325195312 -392.83984375 384 -382.889648438 c 1
 384 -260.493164062 l 1
 431.853515625 -271.6953125 478.356445312 -280 512 -280 c 0
 559 -280 590.879882812 -262.909179688 612 -235 c 0
 640 -198 640 -155 640 -105 c 2
 640 0 l 1
 768 0 l 1
 768 -105 l 2
EndSplineSet
Layer: 2
Layer: 3
Layer: 4
EndChar
StartChar: Tcaron
Encoding: 356 356 295
Width: 1152
VWidth: 0
Flags: H
LayerCount: 5
Back
Fore
SplineSet
1024 1280 m 1
 1024 1160 l 1
 640 1160 l 1
 640 0 l 1
 512 0 l 1
 512 1160 l 1
 128 1160 l 1
 128 1280 l 1
 1024 1280 l 1
497 1408 m 5
 655 1408 l 5
 952 1664 l 5
 794 1664 l 5
 576 1500.03710938 l 5
 358 1664 l 5
 200 1664 l 5
 497 1408 l 5
EndSplineSet
Layer: 2
Layer: 3
Layer: 4
EndChar
StartChar: Utilde
Encoding: 360 360 221
Width: 1152
VWidth: 0
Flags: H
LayerCount: 5
Back
Fore
SplineSet
128 1280 m 1
 256 1280 l 1
 256 512 l 2
 256 437 256 378 268 330 c 0
 301.4140625 196.345703125 416 104 576 104 c 0
 736 104 850.5859375 196.345703125 884 330 c 0
 896 378 896 437 896 512 c 2
 896 1280 l 1
 1024 1280 l 1
 1024 512 l 2
 1024 426 1024.1328125 371.350585938 1008 303 c 0
 964.392578125 118.24609375 797 -16 576 -16 c 0
 355 -16 187.248046875 118.162109375 144 303 c 0
 128 371.381835938 128 426 128 512 c 2
 128 1280 l 1
448 1540 m 0
 397 1540 384 1481 381 1427 c 1
 253 1433 l 1
 257 1551 319 1660 448 1660 c 0
 594 1660 627 1532 704 1532 c 0
 755 1532 768 1591 771 1645 c 1
 899 1639 l 1
 896 1523 833 1412 704 1412 c 0
 558 1412 525 1540 448 1540 c 0
EndSplineSet
Layer: 2
Layer: 3
Layer: 4
EndChar
StartChar: ubreve
Encoding: 365 365 226
Width: 1152
VWidth: 0
Flags: H
LayerCount: 5
Back
Fore
SplineSet
556 -16 m 0xb8
 456 -16 375 29 325 91 c 0
 256 177 256 273 256 367 c 2
 256 1024 l 1
 384 1024 l 1
 384 367 l 2
 384 280 384 218 429 166 c 0
 461 129 512 104 576 104 c 128xb8
 640 104 691 129 723 166 c 0
 768 218 768 280 768 367 c 2
 768 1024 l 1
 896 1024 l 1
 896 0 l 1
 768 0 l 1x78
 768 112 l 1
 758 112 l 1
 709 35 632 -16 556 -16 c 0xb8
788 1408 m 5
 916 1408 l 5
 916 1239.94628906 764.259765625 1136 576 1136 c 4
 387.739257812 1136 236 1239.94433594 236 1408 c 5
 364 1408 l 5
 364 1321.65527344 433.061523438 1256 576 1256 c 4
 718.939453125 1256 788 1321.65332031 788 1408 c 5
EndSplineSet
Layer: 2
Layer: 3
Layer: 4
EndChar
StartChar: uhungarumlaut
Encoding: 369 369 232
Width: 1152
VWidth: 0
Flags: H
LayerCount: 5
Back
Fore
SplineSet
556 -16 m 0xb8
 456 -16 375 29 325 91 c 0
 256 177 256 273 256 367 c 2
 256 1024 l 1
 384 1024 l 1
 384 367 l 2
 384 280 384 218 429 166 c 0
 461 129 512 104 576 104 c 128xb8
 640 104 691 129 723 166 c 0
 768 218 768 280 768 367 c 2
 768 1024 l 1
 896 1024 l 1
 896 0 l 1
 768 0 l 1x78
 768 112 l 1
 758 112 l 1
 709 35 632 -16 556 -16 c 0xb8
616 1152 m 5xa0
 754 1152 l 5
 920 1408 l 5
 782 1408 l 5
 616 1152 l 5xa0
360 1152 m 5xc0
 498 1152 l 5
 664 1408 l 5
 526 1408 l 5
 360 1152 l 5xc0
EndSplineSet
Layer: 2
Layer: 3
Layer: 4
EndChar
StartChar: Uogonek
Encoding: 370 370 266
Width: 1152
VWidth: 0
Flags: H
LayerCount: 5
Back
Fore
SplineSet
128 1280 m 1
 256 1280 l 1
 256 512 l 2
 256 437 256 378 268 330 c 0
 301.4140625 196.345703125 416 104 576 104 c 0
 736 104 850.5859375 196.345703125 884 330 c 0
 896 378 896 437 896 512 c 2
 896 1280 l 1
 1024 1280 l 1
 1024 512 l 2
 1024 426 1024.1328125 371.350585938 1008 303 c 0
 964.392578125 118.24609375 797 -16 576 -16 c 0
 355 -16 187.248046875 118.162109375 144 303 c 0
 128 371.381835938 128 426 128 512 c 2
 128 1280 l 1
511 -280 m 0
 557 -280 601 -270 640 -260 c 1
 640 -383 l 1
 600 -391 557 -400 511 -400 c 0
 397 -400 256 -325 256 -205 c 0
 256 -57 450.760742188 -63 512 0 c 5
 640 0 l 1
 598.838867188 -91 384 -103 384 -198 c 0
 384 -258 454 -280 511 -280 c 0
EndSplineSet
Layer: 2
Layer: 3
Layer: 4
EndChar
StartChar: wcircumflex
Encoding: 373 373 238
Width: 1152
VWidth: 0
Flags: H
LayerCount: 5
Back
Fore
SplineSet
514 1023 m 1
 638 1023 l 1
 822 210 l 1
 832 210 l 1
 907 461 915 741 915 1024 c 1
 1046 1024 l 1
 1046 681 995 340 895 2 c 1
 770 0 l 1
 581 823 l 1
 571 823 l 1
 382 0 l 1
 257 2 l 1
 157 340 106 681 106 1024 c 1
 237 1024 l 1
 237 741 245 461 320 210 c 1
 330 210 l 1
 514 1023 l 1
497 1408 m 5
 655 1408 l 5
 952 1152 l 5
 794 1152 l 5
 576 1315.96289062 l 5
 358 1152 l 5
 200 1152 l 5
 497 1408 l 5
EndSplineSet
Layer: 2
Layer: 3
Layer: 4
EndChar
StartChar: Ycircumflex
Encoding: 374 374 234
Width: 1152
VWidth: 0
Flags: H
LayerCount: 5
Back
Fore
SplineSet
103 1280 m 1
 238 1280 l 1
 284.340820312 998.920898438 371.736328125 759.880859375 571 567 c 1
 581 567 l 1
 780.263671875 759.880859375 867.659179688 998.921875 914 1280 c 1
 1049 1280 l 1
 1005.59179688 988.20703125 913.599609375 709.284179688 640 452.037109375 c 1
 640 0 l 1
 512 0 l 1
 512 452.037109375 l 1
 238.400390625 709.284179688 146.407226562 988.20703125 103 1280 c 1
497 1664 m 5
 655 1664 l 5
 952 1408 l 5
 794 1408 l 5
 576 1571.96289062 l 5
 358 1408 l 5
 200 1408 l 5
 497 1664 l 5
EndSplineSet
Layer: 2
Layer: 3
Layer: 4
EndChar
StartChar: Ydieresis
Encoding: 376 376 236
Width: 1152
VWidth: 0
Flags: H
LayerCount: 5
Back
Fore
SplineSet
103 1280 m 1
 238 1280 l 1
 284.340820312 998.920898438 371.736328125 759.880859375 571 567 c 1
 581 567 l 1
 780.263671875 759.880859375 867.659179688 998.921875 914 1280 c 1
 1049 1280 l 1
 1005.59179688 988.20703125 913.599609375 709.284179688 640 452.037109375 c 1
 640 0 l 1
 512 0 l 1
 512 452.037109375 l 1
 238.400390625 709.284179688 146.407226562 988.20703125 103 1280 c 1
800 1680 m 132
 866 1680 912 1634 912 1568 c 132
 912 1502 866 1456 800 1456 c 132
 734 1456 688 1502 688 1568 c 132
 688 1634 734 1680 800 1680 c 132
352 1680 m 132
 418 1680 464 1634 464 1568 c 132
 464 1502 418 1456 352 1456 c 132
 286 1456 240 1502 240 1568 c 132
 240 1634 286 1680 352 1680 c 132
EndSplineSet
Layer: 2
Layer: 3
Layer: 4
EndChar
StartChar: Zacute
Encoding: 377 377 239
Width: 1152
VWidth: 0
Flags: H
LayerCount: 5
Back
Fore
SplineSet
148 1160 m 1
 148 1280 l 1
 1004 1280 l 1
 1004 1190 l 1
 293.080078125 130 l 1
 293 120 l 1
 1024 120 l 1
 1024 0 l 1
 128 0 l 1
 128 92 l 1
 839 1150 l 1
 838.919921875 1160 l 1
 148 1160 l 1
488 1408 m 5
 626 1408 l 5
 792 1664 l 5
 654 1664 l 5
 488 1408 l 5
EndSplineSet
Layer: 2
Layer: 3
Layer: 4
EndChar
StartChar: zacute
Encoding: 378 378 240
Width: 1152
VWidth: 0
Flags: H
LayerCount: 5
Back
Fore
SplineSet
276 904 m 1
 276 1024 l 1
 876 1024 l 1
 876 934 l 1
 401.080078125 130 l 1
 401 120 l 1
 896 120 l 1
 896 0 l 1
 256 0 l 1
 256 92 l 1
 731 894 l 1
 730.919921875 904 l 1
 276 904 l 1
488 1152 m 5
 626 1152 l 5
 792 1408 l 5
 654 1408 l 5
 488 1152 l 5
EndSplineSet
Layer: 2
Layer: 3
Layer: 4
EndChar
StartChar: uni0302
Encoding: 770 770 107
Width: 1152
VWidth: 0
Flags: W
HStem: 1280 256
AnchorPoint: "top" 576 1152 mark 0
LayerCount: 5
Back
Fore
SplineSet
497 1536 m 1
 655 1536 l 1
 952 1280 l 1
 794 1280 l 1
 576 1443.96289062 l 1
 358 1280 l 1
 200 1280 l 1
 497 1536 l 1
EndSplineSet
Layer: 2
Layer: 3
Layer: 4
EndChar
StartChar: uni0307
Encoding: 775 775 112
Width: 1152
VWidth: 0
Flags: W
HStem: 1328 224<485.032 666.968>
VStem: 464 224<1349.03 1530.97>
AnchorPoint: "top" 576 1152 mark 0
LayerCount: 5
Back
Fore
SplineSet
576 1552 m 4
 642 1552 688 1506 688 1440 c 4
 688 1374 642 1328 576 1328 c 4
 510 1328 464 1374 464 1440 c 4
 464 1506 510 1552 576 1552 c 4
EndSplineSet
Layer: 2
Layer: 3
Layer: 4
EndChar
StartChar: asterisk.alt
Encoding: 1114112 -1 101
Width: 1152
VWidth: 0
Flags: W
HStem: 1388 20G<318.358 364.534 788.402 834.642>
VStem: 512 128<512 906>
LayerCount: 5
Back
Fore
SplineSet
512 906 m 5
 144 786 l 5
 102 899 l 5
 476 1021 l 5
 244 1341 l 5
 350 1408 l 5
 576 1097 l 5
 803 1408 l 5
 909 1341 l 5
 676 1021 l 5
 1050 899 l 5
 1008 786 l 5
 640 906 l 5
 640 512 l 5
 512 512 l 5
 512 906 l 5
EndSplineSet
Layer: 2
Layer: 3
Layer: 4
EndChar
